<?xml version="1.0" encoding="utf-8"?>
<!-- Generator: Adobe Illustrator 23.0.1, SVG Export Plug-In . SVG Version: 6.00 Build 0)  -->
<svg version="1.1" id="katman_1" xmlns="http://www.w3.org/2000/svg" xmlns:xlink="http://www.w3.org/1999/xlink" x="0px" y="0px"
	 viewBox="0 0 1333.2 260" style="enable-background:new 0 0 1333.2 260;" xml:space="preserve">
<style type="text/css">
	.st0{fill:url(#SVGID_1_);}
	.st1{fill:url(#SVGID_2_);}
	.st2{fill:url(#SVGID_3_);}
	.st3{fill:url(#SVGID_4_);}
	.st4{fill:url(#SVGID_5_);}
	.st5{fill:url(#SVGID_6_);}
	.st6{fill:url(#SVGID_7_);}
	.st7{fill:url(#SVGID_8_);}
	.st8{fill:url(#SVGID_9_);}
	.st9{fill:url(#SVGID_10_);}
	.st10{fill:url(#SVGID_11_);}
	.st11{fill:#128BFC;}
</style>
<g>
	<g>
		
			<linearGradient id="SVGID_1_" gradientUnits="userSpaceOnUse" x1="282.0025" y1="98.2" x2="1464.5719" y2="98.2" gradientTransform="matrix(1 0 0 -1 0 226.88)">
			<stop  offset="0" style="stop-color:#128BFC"/>
			<stop  offset="1" style="stop-color:#18BFE1"/>
		</linearGradient>
		<path class="st0" d="M393.5,48.9v157.5h-21.6l-1-8.8c-8,7.3-17.9,10.9-29.6,10.9c-9.7,0-18.1-2.4-25.4-7.2s-12.9-11.3-16.8-19.5
			c-3.9-8.2-5.9-17.3-5.9-27.2c0-9.8,1.9-18.8,5.8-27.1c3.9-8.3,9.4-14.8,16.6-19.7s15.8-7.4,25.7-7.4c11.3,0,20.9,3.4,28.8,10.1
			V48.9H393.5z M364.4,179.7c4.8-6,7.3-14.4,7.3-25.2c0-10.6-2.5-19-7.4-25.2s-11.4-9.2-19.5-9.2c-8.5,0-15.3,3.2-20.2,9.6
			s-7.4,14.7-7.4,24.9c0,10.1,2.5,18.3,7.4,24.7c4.9,6.4,11.6,9.5,20.2,9.5C353,188.7,359.6,185.7,364.4,179.7z"/>
		
			<linearGradient id="SVGID_2_" gradientUnits="userSpaceOnUse" x1="282.0025" y1="93.16" x2="1464.5719" y2="93.16" gradientTransform="matrix(1 0 0 -1 0 226.88)">
			<stop  offset="0" style="stop-color:#128BFC"/>
			<stop  offset="1" style="stop-color:#18BFE1"/>
		</linearGradient>
		<path class="st1" d="M418,102.2h23.5v104.2H418V102.2z M419.1,61.1h21.4v19.7h-21.4V61.1z"/>
		
			<linearGradient id="SVGID_3_" gradientUnits="userSpaceOnUse" x1="282.0025" y1="72.5899" x2="1464.5719" y2="72.5899" gradientTransform="matrix(1 0 0 -1 0 226.88)">
			<stop  offset="0" style="stop-color:#128BFC"/>
			<stop  offset="1" style="stop-color:#18BFE1"/>
		</linearGradient>
		<path class="st2" d="M460.5,200.3l2.3-20.8c10.8,7,21.6,10.5,32.3,10.5c5.7,0,10.1-1,13.1-2.8c3-1.9,4.5-4.7,4.5-8.5
			c0-4.2-1.5-7.4-4.6-9.5s-8.1-4.4-15.1-6.9c-10.2-3.5-18-7.5-23.2-12s-7.9-11-7.9-19.5c0-9,3.4-16.3,10.2-22
			c6.8-5.7,16.3-8.6,28.7-8.6c11.5,0,21.8,2.5,30.9,7.6l-2.3,20.4c-4.6-3.4-9.2-6-13.7-7.8c-4.5-1.8-9.3-2.7-14.5-2.7s-9.2,1-12,3
			c-2.8,2-4.2,4.9-4.2,8.7c0,2.8,0.8,5.1,2.3,6.9s3.7,3.4,6.6,4.6s7.4,3,13.5,5.3c9.4,3.5,16.5,7.5,21.5,12.1c5,4.5,7.5,11,7.5,19.2
			c0,9.4-3.4,16.9-10.1,22.6c-6.7,5.7-16.9,8.5-30.4,8.5C483.2,208.5,471.4,205.8,460.5,200.3z"/>
		
			<linearGradient id="SVGID_4_" gradientUnits="userSpaceOnUse" x1="282.0025" y1="93.16" x2="1464.5719" y2="93.16" gradientTransform="matrix(1 0 0 -1 0 226.88)">
			<stop  offset="0" style="stop-color:#128BFC"/>
			<stop  offset="1" style="stop-color:#18BFE1"/>
		</linearGradient>
		<path class="st3" d="M554.5,102.2h23.5v104.2h-23.5V102.2z M555.6,61.1H577v19.7h-21.4V61.1z"/>
		
			<linearGradient id="SVGID_5_" gradientUnits="userSpaceOnUse" x1="282.0025" y1="48.115" x2="1464.5719" y2="48.115" gradientTransform="matrix(1 0 0 -1 0 226.88)">
			<stop  offset="0" style="stop-color:#128BFC"/>
			<stop  offset="1" style="stop-color:#18BFE1"/>
		</linearGradient>
		<path class="st4" d="M681.8,107.5c7,4.8,12.3,11.2,16,19.4s5.5,17.3,5.5,27.4s-1.8,19.3-5.3,27.5c-3.6,8.3-8.9,14.8-15.9,19.5
			s-15.4,7.1-25.2,7.1c-6.7,0-12.5-0.8-17.3-2.5s-9.2-4.3-13.1-8v59.2h-23.5v-155h18.7l2.5,11.1c4.5-4.2,9.3-7.4,14.6-9.7
			s11.3-3.4,18.2-3.4C666.5,100.3,674.8,102.7,681.8,107.5z M672.1,179.5c4.6-6.2,6.9-14.6,6.9-25.2c0-10.5-2.3-18.8-6.9-25
			s-11.1-9.2-19.3-9.2c-8.8,0-15.7,3-20.5,9c-4.8,6-7.3,14.4-7.3,25.2c0,10.9,2.4,19.4,7.3,25.4c4.8,6,11.7,9,20.5,9
			C661.1,188.7,667.5,185.7,672.1,179.5z"/>
		
			<linearGradient id="SVGID_6_" gradientUnits="userSpaceOnUse" x1="282.0025" y1="98.205" x2="1464.5719" y2="98.205" gradientTransform="matrix(1 0 0 -1 0 226.88)">
			<stop  offset="0" style="stop-color:#128BFC"/>
			<stop  offset="1" style="stop-color:#18BFE1"/>
		</linearGradient>
		<path class="st5" d="M728.5,201c-4.4-5-6.6-11.3-6.6-19V48.9h23.3v122.2c0,5.9,0.3,10,1,12.5c0.7,2.5,2,4,3.8,4.7
			c1.8,0.7,4.9,1,9.2,1l-2.3,19.1h-8.4C739.6,208.5,732.9,206,728.5,201z"/>
		
			<linearGradient id="SVGID_7_" gradientUnits="userSpaceOnUse" x1="282.0025" y1="93.16" x2="1464.5719" y2="93.16" gradientTransform="matrix(1 0 0 -1 0 226.88)">
			<stop  offset="0" style="stop-color:#128BFC"/>
			<stop  offset="1" style="stop-color:#18BFE1"/>
		</linearGradient>
		<path class="st6" d="M775,102.2h23.5v104.2H775V102.2z M776.1,61.1h21.4v19.7h-21.4V61.1z"/>
		
			<linearGradient id="SVGID_8_" gradientUnits="userSpaceOnUse" x1="282.0025" y1="73.525" x2="1464.5719" y2="73.525" gradientTransform="matrix(1 0 0 -1 0 226.88)">
			<stop  offset="0" style="stop-color:#128BFC"/>
			<stop  offset="1" style="stop-color:#18BFE1"/>
		</linearGradient>
		<path class="st7" d="M905.9,113.1c6.7,8.5,10.1,20.3,10.1,35.3v58h-23.3v-56.5c0-10.4-1.8-17.9-5.4-22.7
			c-3.6-4.8-9.5-7.1-17.8-7.1c-9.8,0-17.4,3.4-22.7,10.3v76h-23.5V102.2h20.8l0.8,8.6c9-7,19.1-10.5,30.5-10.5
			C889,100.3,899.1,104.6,905.9,113.1z"/>
		
			<linearGradient id="SVGID_9_" gradientUnits="userSpaceOnUse" x1="282.0025" y1="94" x2="1464.5719" y2="94" gradientTransform="matrix(1 0 0 -1 0 226.88)">
			<stop  offset="0" style="stop-color:#128BFC"/>
			<stop  offset="1" style="stop-color:#18BFE1"/>
		</linearGradient>
		<path class="st8" d="M943.9,59.4h51c34.2,0,51.2,15.8,51.2,47.5c0,16.2-4.4,28.4-13.2,36.3s-21.4,12-37.8,12h-26.5v51.2h-24.8
			V59.4z M992.2,134.4c9.8,0,17.1-2.2,22-6.6c4.8-4.4,7.3-11.2,7.3-20.5c0-9.4-2.4-16.2-7.3-20.6c-4.8-4.3-12.3-6.5-22.4-6.5h-23.1
			v54.2L992.2,134.4L992.2,134.4z"/>
		
			<linearGradient id="SVGID_10_" gradientUnits="userSpaceOnUse" x1="282.0025" y1="94" x2="1464.5719" y2="94" gradientTransform="matrix(1 0 0 -1 0 226.88)">
			<stop  offset="0" style="stop-color:#128BFC"/>
			<stop  offset="1" style="stop-color:#18BFE1"/>
		</linearGradient>
		<path class="st9" d="M1067.1,59.4h51.7c15.8,0,28.2,3.7,37.2,11.1c9,7.4,13.4,18.5,13.4,33.4c0,10.2-2.2,18.6-6.5,25.2
			c-4.3,6.6-10.6,11.8-18.7,15.8l33,61.5h-27.9l-28.8-55.6h-1.1h-27.5v55.6h-24.8L1067.1,59.4L1067.1,59.4z M1114.2,129.9
			c10.2,0,17.8-2.2,22.6-6.6s7.3-10.5,7.3-18.4c0-16.5-9.7-24.8-29.2-24.8h-22.9v49.8L1114.2,129.9L1114.2,129.9z"/>
		
			<linearGradient id="SVGID_11_" gradientUnits="userSpaceOnUse" x1="282.0025" y1="94" x2="1464.5719" y2="94" gradientTransform="matrix(1 0 0 -1 0 226.88)">
			<stop  offset="0" style="stop-color:#128BFC"/>
			<stop  offset="1" style="stop-color:#18BFE1"/>
		</linearGradient>
		<path class="st10" d="M1223.4,199.9c-10.9-6.3-19.5-15.2-25.7-26.8c-6.2-11.5-9.3-25-9.3-40.2c0-15.3,3.1-28.7,9.3-40.2
			c6.2-11.5,14.8-20.5,25.7-26.8c10.9-6.3,23.4-9.5,37.4-9.5s26.5,3.1,37.4,9.5c10.9,6.3,19.5,15.2,25.7,26.8
			c6.2,11.5,9.3,25,9.3,40.2c0,15.3-3.1,28.7-9.3,40.2c-6.2,11.5-14.8,20.5-25.7,26.8c-10.9,6.3-23.4,9.5-37.4,9.5
			C1246.8,209.3,1234.3,206.2,1223.4,199.9z M1295.3,171.1c8.1-9.8,12.1-22.5,12.1-38.2s-4-28.4-12.1-38.2
			c-8.1-9.8-19.6-14.7-34.5-14.7c-15,0-26.5,4.9-34.7,14.7c-8.1,9.8-12.2,22.5-12.2,38.2s4.1,28.4,12.2,38.2s19.7,14.7,34.7,14.7
			C1275.7,185.8,1287.3,180.9,1295.3,171.1z"/>
	</g>
</g>
<path class="st11" d="M256.4,101.2l-11.5-11.5c-4.8-4.8-12.5-4.8-17.2,0l-2.9,2.9l-57.4-57.5l2.9-2.9c4.8-4.8,4.8-12.5,0-17.2
	L158.8,3.6c-4.8-4.8-12.5-4.8-17.2,0L78.3,66.8c-4.8,4.8-4.8,12.5,0,17.2l11.5,11.5c4.8,4.8,12.5,4.8,17.2,0l2.9-2.9l20.1,20.1
	l-41.2,41.1L86,151c-6.3-6.4-16.6-6.4-23,0L4.8,209.3c-6.4,6.4-6.4,16.6,0,23l23,23c6.3,6.3,16.6,6.3,23,0L109,197
	c6.3-6.4,6.3-16.6,0-23l-2.9-2.9l41.1-41.1l20.1,20.1l-2.9,2.9c-4.8,4.8-4.8,12.5,0,17.2l11.5,11.5c4.8,4.8,12.5,4.8,17.2,0
	l63.2-63.2C261.2,113.7,261.2,106,256.4,101.2L256.4,101.2z"/>
</svg>
